# xmcd
#
# Track frame offsets: 
#        183
#        31003
#        86825
#        120708
#        164915
#        208083
#        256900
#
# Disc length: 4606 seconds
#
# Revision: 55
# Processed by: cddbd v1.5.2PL0 Copyright (c) Steve Scherf et al.
# Submitted via: ExactAudioCopy v1.0b3
#
DISCID=5e11fc07
DTITLE=Deep Purple - Made in Japan
DYEAR=1972
DGENRE=Hard Rock
TTITLE0=Highway star
TTITLE1=Child in time
TTITLE2=Smoke on the water
TTITLE3=The mule
TTITLE4=Strange kind of woman
TTITLE5=Lazy
TTITLE6=Space truckin'
EXTD=Live from 1972-Tour in Japan\nEMI Records\nRitchie Blackmore, Ian
EXTD=Gillan, Roger Glover, John Lord, Ian Paice\nMixed by R.Glover and 
EXTD=I.Paice YEAR: 1972
EXTT0=Osaka - 16th August 1972
EXTT1=Osaka - 16th August 1972
EXTT2=Osaka - 15th August 1972
EXTT3=Tokyo - 17th August 1972
EXTT4=Osaka - 16th August 1972
EXTT5=Tokyo - 17th August 1972
EXTT6=Osaka - 16th August 1972
PLAYORDER=
